<svg id="svg" xmlns="http://www.w3.org/2000/svg" xmlns:xlink="http://www.w3.org/1999/xlink" width="400" height="390.36144578313247" viewBox="0, 0, 400,390.36144578313247" version="1.1"><g id="svgg"><path id="path0" d="M198.610 99.623 C 194.320 104.553,195.256 113.640,200.504 117.992 C 207.145 123.500,208.955 134.609,204.265 141.087 C 198.938 148.446,196.145 154.519,196.145 158.742 C 196.145 164.035,198.409 166.613,200.227 163.389 C 202.242 159.817,209.789 151.807,211.140 151.807 C 214.612 151.807,211.044 162.676,205.575 168.759 C 201.063 173.777,200.008 175.796,200.040 179.347 L 200.080 183.735 202.509 180.818 C 203.845 179.213,207.754 175.799,211.197 173.230 C 223.089 164.358,227.546 151.822,222.351 141.863 C 221.399 140.038,220.640 135.915,220.665 132.701 C 220.725 124.958,217.343 118.592,209.397 111.495 C 205.482 107.997,202.528 104.175,201.762 101.614 C 200.579 97.663,200.409 97.556,198.610 99.623 M193.976 123.226 C 193.976 126.582,191.694 130.056,184.188 138.122 C 172.575 150.603,175.519 169.660,189.799 174.440 C 197.002 176.851,198.522 175.476,194.154 170.500 C 187.474 162.893,187.672 158.170,195.297 143.141 C 200.276 133.327,200.805 130.379,198.677 124.276 C 197.143 119.876,193.976 119.169,193.976 123.226 M124.699 167.448 C 79.610 179.123,71.700 248.221,113.053 269.176 C 132.285 278.921,156.641 264.351,156.622 243.111 C 156.607 225.492,129.081 217.804,122.368 233.542 C 120.946 236.875,123.198 237.305,126.689 234.368 C 140.149 223.042,155.606 244.141,144.340 258.463 C 128.169 279.021,99.440 258.957,99.445 227.108 C 99.455 169.511,164.553 165.620,184.955 221.998 C 188.818 232.672,192.764 256.880,193.742 275.904 L 194.578 292.169 200.112 292.528 L 205.645 292.888 206.391 275.058 C 208.883 215.461,229.311 181.893,263.059 181.939 C 301.344 181.992,316.536 242.758,283.180 262.419 C 265.534 272.820,245.874 257.496,253.487 239.275 C 256.918 231.063,265.772 228.825,273.005 234.342 C 277.179 237.526,279.321 236.665,277.179 232.663 C 269.249 217.844,243.317 225.972,243.400 243.250 C 243.504 265.055,267.383 278.763,287.636 268.643 C 324.505 250.219,322.372 191.738,284.074 170.971 C 253.040 154.143,206.288 183.068,201.560 222.023 C 200.737 228.806,198.795 230.867,198.795 224.959 C 198.795 191.784,156.749 159.149,124.699 167.448 " stroke="none" fill="#000000" fill-rule="evenodd"></path></g></svg>