<svg id="Layer_1" enable-background="new 0 0 512 512" height="512" viewBox="0 0 512 512" width="512" xmlns="http://www.w3.org/2000/svg"><g><path d="m245.393 250.505c2.813 2.813 6.628 4.394 10.607 4.394s7.794-1.581 10.607-4.394l124.635-124.636c28.801-28.801 28.85-75.453 0-104.303-28.758-28.755-75.547-28.754-104.302-.001l-30.94 30.935-30.938-30.934c-28.757-28.755-75.546-28.754-104.303 0-28.805 28.804-28.847 75.457 0 104.303zm-103.421-207.725c17.059-17.057 44.816-17.06 61.879.001 0 0 41.542 41.538 41.542 41.539 2.813 2.813 6.628 4.394 10.607 4.394s7.794-1.581 10.607-4.394c0 0 41.544-41.54 41.544-41.54 17.059-17.059 44.818-17.059 61.878 0 17.085 17.085 17.114 44.761 0 61.875l-114.029 114.03-114.028-114.03c-17.085-17.083-17.116-44.761 0-61.875z"/><path d="m40.429 146.184-32.134 16.066c-7.41 3.705-10.413 12.715-6.708 20.125 3.717 7.434 12.74 10.401 20.125 6.708l32.133-16.066c7.41-3.705 10.413-12.715 6.708-20.125s-12.716-10.413-20.124-6.708z"/><path d="m8.295 28.42 32.133 16.067c7.4 3.699 16.414.714 20.125-6.708 3.705-7.41.702-16.42-6.708-20.125l-32.133-16.067c-7.41-3.705-16.42-.701-20.125 6.708s-.702 16.42 6.708 20.125z"/><path d="m503.705 162.25-32.133-16.066c-7.409-3.705-16.42-.702-20.125 6.708s-.701 16.419 6.708 20.125l32.133 16.066c7.4 3.7 16.415.712 20.125-6.708 3.705-7.41.701-16.42-6.708-20.125z"/><path d="m471.572 44.487 32.133-16.067c7.41-3.705 10.413-12.715 6.708-20.125-3.705-7.409-12.715-10.414-20.125-6.708l-32.133 16.067c-7.41 3.705-10.413 12.715-6.708 20.125 3.72 7.44 12.745 10.398 20.125 6.708z"/><path d="m363.372 329.287-20.243 20.245c-7.305-16.589-23.903-28.198-43.162-28.198h-105.004c-40.895 0-57.81 33.294-61.42 48.2h-23.21v-17.134c0-8.284-6.716-15-15-15h-80.333c-8.284 0-15 6.716-15 15v144.6c0 8.284 6.716 15 15 15h80.333c8.284 0 15-6.716 15-15v-17.133h206.844c18.652 0 36.193-7.266 49.393-20.461l108.903-108.907c5.858-5.857 5.853-15.361 0-21.213-30.906-30.905-81.193-30.905-112.101.001zm-283.038 152.713h-50.334v-114.6h50.333v114.6zm265.025-43.809c-7.532 7.529-17.541 11.675-28.182 11.675h-206.843v-50.333h36.43c8.284 0 15-6.716 15-15 0-18.348 14.837-33.2 33.2-33.2h105.004c9.447 0 17.133 7.686 17.133 17.133 0 14.014-12.927 17.063-16.836 17.131-.008 0-.017 0-.021 0-.092.001-.184.002-.276.002h-54.855c-8.284 0-15 6.716-15 15s6.716 15 15 15h54.861c12.576 0 24.407-4.899 33.32-13.803l51.293-51.298c15.512-15.511 38.88-18.498 57.417-8.956z"/></g></svg>